<svg width="115" height="124" viewBox="0 1 23 24.799999237060547" fill="none" xmlns="http://www.w3.org/2000/svg" style="">
<path d="M36.0697 18.407H34.1234L33.8536 16.8141C33.0106 17.9604 31.8595 18.5311 30.398 18.5311C29.4332 18.5311 28.5687 18.3138 27.8117 17.8792C27.0523 17.4446 26.46 16.8165 26.0325 15.995C25.6051 15.1735 25.3901 14.2111 25.3901 13.1078C25.3901 12.0307 25.6074 11.0826 26.0421 10.2611C26.4767 9.43963 27.0737 8.80439 27.8332 8.35782C28.5926 7.90885 29.4475 7.68438 30.4004 7.68438C31.1717 7.68438 31.85 7.82528 32.4279 8.10946C33.0082 8.39126 33.4762 8.7829 33.8345 9.27963V3.91833H36.0697V18.407ZM33.856 13.1484C33.856 12.0857 33.5742 11.2259 33.0082 10.5716C32.4422 9.91725 31.6971 9.5877 30.7729 9.5877C29.8487 9.5877 29.1036 9.91487 28.5377 10.5716C27.9717 11.2259 27.6899 12.0713 27.6899 13.1078C27.6899 14.1561 27.9717 15.0087 28.5377 15.663C29.1036 16.3174 29.8487 16.6469 30.7729 16.6469C31.6971 16.6469 32.4422 16.3221 33.0082 15.675C33.5718 15.0254 33.856 14.1848 33.856 13.1484Z" fill="white"/>
<path d="M40.4994 7.80859V18.407H38.2642V7.80859H40.4994Z" fill="white"/>
<path d="M52.9799 17.9723C52.9799 19.4625 52.5381 20.6183 51.6545 21.4398C50.7709 22.2614 49.4049 22.6721 47.5565 22.6721C46.1213 22.6721 44.9559 22.3521 44.0579 21.7097C43.16 21.0673 42.6633 20.1598 42.5678 18.9873H44.8436C44.9821 19.5795 45.2997 20.0404 45.7965 20.3628C46.2932 20.6876 46.9356 20.85 47.7213 20.85C49.7488 20.85 50.7637 19.8637 50.7637 17.8911V16.7114C49.99 17.8696 48.8389 18.45 47.3081 18.45C46.3434 18.45 45.4789 18.2326 44.7218 17.798C43.9624 17.3634 43.3702 16.7425 42.9427 15.9353C42.5152 15.1281 42.3003 14.1729 42.3003 13.0696C42.3003 12.0068 42.5176 11.0683 42.9522 10.254C43.3869 9.43963 43.9839 8.80918 44.7433 8.36021C45.5027 7.91125 46.3577 7.68677 47.3105 7.68677C48.1105 7.68677 48.8007 7.84439 49.381 8.162C49.9613 8.47962 50.4294 8.91426 50.7876 9.46591L51.036 7.81095H52.9823V17.9723H52.9799ZM50.7661 13.1078C50.7661 12.0594 50.4843 11.2068 49.9183 10.5525C49.3524 9.89815 48.6073 9.56859 47.6831 9.56859C46.7589 9.56859 46.0138 9.89338 45.4478 10.5406C44.8818 11.1901 44.6 12.0307 44.6 13.0648C44.6 14.0988 44.8818 14.9418 45.4478 15.589C46.0138 16.2386 46.7589 16.561 47.6831 16.561C48.6073 16.561 49.3524 16.241 49.9183 15.5986C50.4819 14.9609 50.7661 14.1299 50.7661 13.1078Z" fill="white"/>
<path d="M57.4076 7.80859V18.407H55.1724V7.80859H57.4076Z" fill="white"/>
<path d="M58.4438 9.77632V7.81091H60.2851V4.85205H62.5418V7.81091H65.0876V9.77632H62.5418V15.3024C62.5418 15.7155 62.6254 16.0093 62.7902 16.1812C62.955 16.3532 63.2392 16.4391 63.638 16.4391H65.3359V18.4045H63.1842C62.1765 18.4045 61.4433 18.1705 60.98 17.7C60.5167 17.232 60.2875 16.506 60.2875 15.5269V9.77393H58.4438V9.77632Z" fill="white"/>
<path d="M76.5529 18.407H75.3732C74.683 18.407 74.1863 18.2613 73.883 17.9723C73.5797 17.6834 73.4269 17.2607 73.4269 16.709C72.6269 17.9222 71.4615 18.5311 69.9283 18.5311C68.7414 18.5311 67.7886 18.2541 67.0721 17.7025C66.3533 17.1508 65.9951 16.3914 65.9951 15.4266C65.9951 14.3376 66.382 13.4994 67.1533 12.9119C67.9247 12.3245 69.0495 12.0331 70.5277 12.0331H73.1976V11.3907C73.1976 10.7985 72.9899 10.3328 72.5767 9.99368C72.1636 9.65457 71.5904 9.4874 70.8597 9.4874C70.2125 9.4874 69.6776 9.6283 69.2549 9.91248C68.8346 10.1943 68.5814 10.5716 68.5002 11.0397H66.3056C66.4154 9.97696 66.8859 9.15307 67.7122 8.56559C68.5408 7.97812 69.6226 7.68677 70.9624 7.68677C72.3833 7.68677 73.4794 8.01871 74.2532 8.68022C75.0269 9.34172 75.4114 10.2946 75.4114 11.5364V15.718C75.4114 16.2147 75.6454 16.4631 76.1159 16.4631H76.5505V18.407H76.5529ZM70.4274 13.6881C69.7373 13.6881 69.2071 13.8218 68.8346 14.0917C68.462 14.3615 68.2758 14.7579 68.2758 15.2809C68.2758 15.7371 68.4525 16.1024 68.8035 16.3771C69.1546 16.6541 69.6346 16.7902 70.2412 16.7902C71.1654 16.7902 71.8866 16.5419 72.4048 16.0451C72.923 15.5484 73.1881 14.8869 73.2024 14.0582V13.6857H70.4274V13.6881Z" fill="white"/>
<path d="M80.0082 3.91833V18.4069H77.7729V3.91833H80.0082Z" fill="white"/>
<path d="M83.0509 6.36137C83.0509 5.52075 83.2444 4.90223 83.6312 4.5082C84.0181 4.11416 84.6462 3.91833 85.5154 3.91833H87.2755V4.89029H85.5584C85.033 4.89029 84.6605 5.00015 84.4408 5.22224C84.2187 5.44195 84.1088 5.81449 84.1088 6.33987V7.91363H87.254V8.88559H84.1088V18.4069H83.0533V8.88559H81.0664V7.91363H83.0533V6.36137H83.0509Z" fill="white"/>
<path d="M97.105 18.4069H96.1736L96.0279 16.1932C95.7103 16.9096 95.2422 17.4804 94.6213 17.9007C94.0004 18.321 93.241 18.5311 92.3455 18.5311C91.1323 18.5311 90.1556 18.1347 89.4177 17.3419C88.6797 16.549 88.3096 15.3645 88.3096 13.7931V7.91602H89.3651V13.731C89.3651 14.9729 89.6421 15.9209 90.1938 16.5777C90.7454 17.232 91.5192 17.5616 92.5126 17.5616C93.6016 17.5616 94.4661 17.158 95.0989 16.3508C95.7342 15.5436 96.0518 14.4499 96.0518 13.0695V7.91602H97.1073V18.4069H97.105Z" fill="white"/>
<path d="M98.3252 8.88559V7.91363H100.312V4.97388H101.368V7.91363H104.162V8.88559H101.368V15.9424C101.368 16.4798 101.477 16.8642 101.7 17.0911C101.922 17.318 102.292 17.4326 102.817 17.4326H104.348V18.4046H102.774C101.891 18.4046 101.26 18.2111 100.88 17.8243C100.501 17.4374 100.312 16.8165 100.312 15.9615V8.8832H98.3252V8.88559Z" fill="white"/>
<path d="M114.469 18.4069H113.537L113.392 16.1932C113.074 16.9096 112.606 17.4804 111.985 17.9007C111.364 18.321 110.605 18.5311 109.709 18.5311C108.496 18.5311 107.519 18.1347 106.781 17.3419C106.043 16.549 105.673 15.3645 105.673 13.7931V7.91602H106.729V13.731C106.729 14.9729 107.006 15.9209 107.558 16.5777C108.109 17.232 108.883 17.5616 109.876 17.5616C110.965 17.5616 111.83 17.158 112.463 16.3508C113.098 15.5436 113.416 14.4499 113.416 13.0695V7.91602H114.471V18.4069H114.469Z" fill="white"/>
<path d="M121.712 8.9262H121.029C119.897 8.9262 119.111 9.30829 118.669 10.0749C118.227 10.8415 118.008 11.8445 118.008 13.0863V18.4046H116.952V7.91125H117.862L118.027 10.0008C118.275 9.35128 118.648 8.84261 119.144 8.47007C119.641 8.09753 120.338 7.91125 121.234 7.91125H121.709V8.9262H121.712Z" fill="white"/>
<path d="M124.642 8.46056C125.38 8.01159 126.218 7.78711 127.157 7.78711C128.081 7.78711 128.902 7.98293 129.619 8.37697C130.338 8.77101 130.906 9.33938 131.326 10.0845C131.746 10.8296 131.971 11.7131 132 12.7329C132 12.9263 131.992 13.072 131.978 13.1675H123.429C123.414 13.2224 123.407 13.306 123.407 13.4159C123.422 14.2302 123.593 14.9514 123.925 15.5795C124.257 16.2076 124.711 16.6971 125.291 17.0482C125.872 17.3992 126.526 17.5759 127.257 17.5759C128.112 17.5759 128.857 17.3371 129.492 16.8619C130.127 16.3867 130.548 15.7419 130.755 14.9275H131.832C131.584 16.0046 131.056 16.8738 130.249 17.5353C129.442 18.1969 128.472 18.5288 127.34 18.5288C126.361 18.5288 125.487 18.3019 124.723 17.8458C123.956 17.3897 123.364 16.7568 122.944 15.9425C122.524 15.1281 122.313 14.1968 122.313 13.1484C122.313 12.1 122.516 11.1687 122.925 10.3543C123.331 9.53998 123.904 8.90952 124.642 8.46056ZM129.755 9.65222C129.086 9.03131 128.226 8.72086 127.178 8.72086C126.543 8.72086 125.958 8.86892 125.418 9.16504C124.881 9.46117 124.439 9.87909 124.093 10.4164C123.749 10.9537 123.548 11.5746 123.493 12.2791H130.903C130.806 11.1496 130.423 10.2731 129.755 9.65222Z" fill="white"/>
<path d="M40.4994 3.91833H38.2642V6.1536H40.4994V3.91833Z" fill="white"/>
<path d="M57.4076 3.91833H55.1724V6.1536H57.4076V3.91833Z" fill="white"/>
<path d="M19.802 0H15.4795V4.32247H19.802V0Z" fill="#F9B934"/>
<path d="M4.32008 18.9615V8.99596C4.32008 8.80252 4.47769 8.64491 4.67113 8.64491H15.4797V4.32483H1.20599C0.539708 4.32483 0 4.86454 0 5.53082V22.4266C0 23.0929 0.539708 23.6326 1.20599 23.6326H15.4797V19.3126H4.67351C4.47769 19.3126 4.32008 19.1549 4.32008 18.9615Z" fill="#F9B934"/>
<path d="M19.802 8.64734H15.4819V19.3102H19.802V8.64734Z" fill="#F9B934"/>
</svg>